<svg width="24" height="24" viewBox="0 0 24 24" fill="none" xmlns="http://www.w3.org/2000/svg">
<g id="Plus">
<path id="Vector" d="M21.6667 13.3333H13.3333V21.6667C13.3333 22.1087 13.1577 22.5326 12.8452 22.8452C12.5326 23.1577 12.1087 23.3333 11.6667 23.3333C11.2246 23.3333 10.8007 23.1577 10.4882 22.8452C10.1756 22.5326 10 22.1087 10 21.6667V13.3333H1.66667C1.22464 13.3333 0.800716 13.1577 0.488156 12.8452C0.175595 12.5326 0 12.1087 0 11.6667C0 11.2246 0.175595 10.8007 0.488156 10.4882C0.800716 10.1756 1.22464 10 1.66667 10H10V1.66667C10 1.22464 10.1756 0.800716 10.4882 0.488155C10.8007 0.175594 11.2246 0 11.6667 0C12.1087 0 12.5326 0.175594 12.8452 0.488155C13.1577 0.800716 13.3333 1.22464 13.3333 1.66667V10H21.6667C22.1087 10 22.5326 10.1756 22.8452 10.4882C23.1577 10.8007 23.3333 11.2246 23.3333 11.6667C23.3333 12.1087 23.1577 12.5326 22.8452 12.8452C22.5326 13.1577 22.1087 13.3333 21.6667 13.3333Z" fill="#D2D3D9"/>
</g>
</svg>
