<svg width="80" height="80" viewBox="0 0 40 40" fill="none" xmlns="http://www.w3.org/2000/svg">
<path d="M19.9943 1.8125C9.99432 1.8125 1.8125 9.99432 1.8125 19.9943C1.8125 29.9943 9.99432 38.1761 19.9943 38.1761C29.9943 38.1761 38.1761 29.9943 38.1761 19.9943C38.1761 9.99432 29.9943 1.8125 19.9943 1.8125ZM19.9943 34.5398C11.9761 34.5398 5.44886 28.0125 5.44886 19.9943C5.44886 11.9761 11.9761 5.44886 19.9943 5.44886C28.0125 5.44886 34.5398 11.9761 34.5398 19.9943C34.5398 28.0125 28.0125 34.5398 19.9943 34.5398ZM20.9034 10.9034H18.1761V21.8125L27.6307 27.6307L29.0852 25.267L20.9034 20.358V10.9034Z" fill="#FA9313"/>
</svg>
