<svg width="24" height="24" viewBox="0 0 24 24" fill="none" xmlns="http://www.w3.org/2000/svg">
<path d="M5 12.4516C5 13.1683 5.1222 13.8613 5.35033 14.5172C2.76578 13.4191 1 11.1922 1 8.62368C1 4.96686 4.57955 2 9 2C11.8815 2 14.4057 3.26068 15.814 5.15137C15.2281 5.05212 14.6214 5 14 5C9.02699 5 5 8.33771 5 12.4516Z" fill="#0E0E0E"/>
<path d="M14 6C18.4205 6 22 8.96686 22 12.6237C22 14.5475 21.2727 16.3035 19.4545 17.7754L14.7273 21.8232C14.2557 22.2315 13.3636 21.8865 13.3636 21.2598V19.2244C9.23864 18.9541 6 16.1023 6 12.6237C6 8.96686 9.57955 6 14 6Z" fill="#0E0E0E"/>
</svg>
