<svg width="32" height="32" viewBox="0 0 32 32" fill="none" xmlns="http://www.w3.org/2000/svg">
<rect width="32" height="32" rx="16" fill="#D2D3D9"/>
<path d="M24.0052 17.3307H17.3385V23.9974C17.3385 24.351 17.1981 24.6902 16.948 24.9402C16.698 25.1903 16.3588 25.3307 16.0052 25.3307C15.6516 25.3307 15.3124 25.1903 15.0624 24.9402C14.8124 24.6902 14.6719 24.351 14.6719 23.9974V17.3307H8.00521C7.65159 17.3307 7.31245 17.1903 7.0624 16.9402C6.81235 16.6902 6.67188 16.351 6.67188 15.9974C6.67188 15.6438 6.81235 15.3046 7.0624 15.0546C7.31245 14.8045 7.65159 14.6641 8.00521 14.6641H14.6719V7.9974C14.6719 7.64377 14.8124 7.30463 15.0624 7.05459C15.3124 6.80454 15.6516 6.66406 16.0052 6.66406C16.3588 6.66406 16.698 6.80454 16.948 7.05459C17.1981 7.30463 17.3385 7.64377 17.3385 7.9974V14.6641H24.0052C24.3588 14.6641 24.698 14.8045 24.948 15.0546C25.1981 15.3046 25.3385 15.6438 25.3385 15.9974C25.3385 16.351 25.1981 16.6902 24.948 16.9402C24.698 17.1903 24.3588 17.3307 24.0052 17.3307Z" fill="#EDEEF0"/>
</svg>
