<svg width="32" height="32" viewBox="0 0 32 32" fill="none" xmlns="http://www.w3.org/2000/svg">
<g id="icon_edit">
<path id="line" d="M8 25.5986C8 25.0091 8.47785 24.5312 9.06731 24.5312H22.9327C23.5222 24.5312 24 25.0091 24 25.5986C24 26.188 23.5222 26.6659 22.9327 26.6659H9.06731C8.47785 26.6659 8 26.188 8 25.5986Z" fill="#0E0E0E"/>
<path id="pen" d="M8 18.1871V20.8889C8 21.1378 8.19553 21.3333 8.44438 21.3333H11.1462C11.2618 21.3333 11.3773 21.2889 11.4573 21.2L21.1627 11.5035L17.8298 8.17066L8.13332 17.8671C8.04444 17.956 8 18.0626 8 18.1871ZM23.7401 8.92611C23.8225 8.84389 23.8878 8.74622 23.9324 8.6387C23.977 8.53119 24 8.41593 24 8.29953C24 8.18313 23.977 8.06787 23.9324 7.96035C23.8878 7.85283 23.8225 7.75517 23.7401 7.67295L21.6604 5.59323C21.5781 5.51084 21.4805 5.44547 21.373 5.40087C21.2654 5.35627 21.1502 5.33331 21.0338 5.33331C20.9174 5.33331 20.8021 5.35627 20.6946 5.40087C20.5871 5.44547 20.4894 5.51084 20.4072 5.59323L18.7808 7.21967L22.1136 10.5526L23.7401 8.92611Z" fill="#0E0E0E"/>
</g>
</svg>
