<svg width="20" height="20" viewBox="0 0 20 20" fill="none" xmlns="http://www.w3.org/2000/svg">
<g id="icon_comment_empty">
<g id="Union">
<path d="M6.66406 6.66406H14.1641V8.33073H6.66406V6.66406Z" fill="#6C6C72"/>
<path d="M6.66406 9.9974H11.6641V11.6641H6.66406V9.9974Z" fill="#6C6C72"/>
<path fill-rule="evenodd" clip-rule="evenodd" d="M15.6792 13.9301L10.755 18.1466C10.2637 18.5718 9.33452 18.2125 9.33452 17.5596V15.4394C5.03764 15.1579 1.66406 12.1872 1.66406 8.56373C1.66406 4.75454 5.39276 1.66406 9.9974 1.66406C14.602 1.66406 18.3307 4.75454 18.3307 8.56373C18.3307 10.5677 17.5732 12.3969 15.6792 13.9301ZM11.0012 13.8784L9.44347 13.7763C5.73677 13.5335 3.33073 11.0486 3.33073 8.56373C3.33073 5.95521 6.00548 3.33073 9.9974 3.33073C13.9893 3.33073 16.6641 5.95521 16.6641 8.56373C16.6641 10.0714 16.1285 11.4221 14.6305 12.6347L14.6127 12.6492L11.0012 15.7416V13.8784Z" fill="#6C6C72"/>
</g>
</g>
</svg>
