<svg width="43" height="44" viewBox="0 0 43 44" fill="none" xmlns="http://www.w3.org/2000/svg">
<rect width="43" height="44" fill="#979797"/>
<g id="&#208;&#152;&#209;&#130;&#208;&#190;&#208;&#179;&#208;&#190;&#208;&#178;&#209;&#139;&#208;&#181; &#209;&#141;&#208;&#186;&#209;&#128;&#208;&#176;&#208;&#189;&#209;&#139;">
<path d="M-1089 -968C-1089 -969.104 -1088.1 -970 -1087 -970H18019C18020.1 -970 18021 -969.105 18021 -968V15641C18021 15642.1 18020.1 15643 18019 15643H-1087C-1088.1 15643 -1089 15642.1 -1089 15641V-968Z" fill="#404040"/>
<g id="&#208;&#160;&#209;&#131;&#208;&#186;&#208;&#190;&#208;&#178;&#208;&#190;&#208;&#180;&#208;&#184;&#209;&#130;&#208;&#181;&#208;&#187;&#209;&#140;: &#208;&#161;&#208;&#191;&#208;&#184;&#209;&#129;&#208;&#190;&#208;&#186; &#209;&#129;&#208;&#190;&#209;&#130;&#209;&#128;&#209;&#131;&#208;&#180;&#208;&#189;&#208;&#184;&#208;&#186;&#208;&#190;&#208;&#178; / &#208;&#157;&#208;&#190;&#208;&#178;&#209;&#139;&#208;&#185;">
<g clip-path="url(#clip0_117_2305)">
<rect x="-120" y="-36" width="1440" height="1024" fill="white"/>
<g id="Header">
<rect width="1200" height="52" transform="translate(0 -4)" fill="white"/>
<g id="Logo">
<g id="smile">
<circle id="logo bg" cx="21.5" cy="22" r="21.5" fill="#EF3124"/>
<path id="smile_2" d="M39.0953 26.2955C38.2096 30.4016 35.9157 34.0686 32.611 36.6614C29.3062 39.2543 25.1987 40.6098 20.9998 40.493C16.8009 40.3763 12.7751 38.7948 9.61946 36.0223C6.46386 33.2498 4.37726 29.4611 3.72102 25.3121L7.27682 24.7497C7.80181 28.0688 9.47109 31.0999 11.9956 33.3178C14.52 35.5358 17.7407 36.8011 21.0999 36.8944C24.459 36.9878 27.745 35.9035 30.3888 33.8292C33.0326 31.7549 34.8677 28.8212 35.5762 25.5364L39.0953 26.2955Z" fill="white"/>
</g>
</g>
</g>
</g>
<rect x="-119.5" y="-35.5" width="1439" height="1023" stroke="#0E0E0E"/>
</g>
</g>
<defs>
<clipPath id="clip0_117_2305">
<rect x="-120" y="-36" width="1440" height="1024" fill="white"/>
</clipPath>
</defs>
</svg>
